<svg width="49" height="26" viewBox="0 0 49 26" fill="none" xmlns="http://www.w3.org/2000/svg">
<g filter="url(#filter0_d_1_296)">
<path fill-rule="evenodd" clip-rule="evenodd" d="M30.1817 8.42276C32.1187 9.79055 35.5608 12.9602 32.6802 15.1914C30.8471 16.6108 27.5554 16.8784 25.7244 15.3029C23.4297 13.3283 25.0859 10.3593 26.8001 8.67178C27.2934 8.1858 27.8287 7.73841 28.3912 7.31982C29.0081 7.65332 29.6081 8.01783 30.1817 8.42276ZM44.1678 0.551786C38.8205 0.880401 33.1167 2.48765 28.5448 5.49273C27.4302 4.96317 26.3343 4.54587 25.3918 4.24494C19.9164 2.49726 13.2171 2.37401 7.70849 4.07491C7.10656 4.26099 7.09212 5.02349 7.46138 5.38646C7.23293 5.20899 7.0066 5.02865 6.78239 4.84543C7.28363 4.28009 7.85757 3.81141 8.53732 3.41835C8.95278 3.17831 9.46243 3.04298 9.85217 2.77534C10.0844 2.61599 10.0277 2.42338 10.3043 2.28417C10.3926 2.23978 10.4045 2.09442 10.2876 2.07578C9.96748 2.02498 9.8103 1.8008 9.48802 1.76342C8.98035 1.70432 8.15578 2.03825 7.71045 2.2343C6.60136 2.72255 5.66265 3.4941 4.88412 4.4133C4.55907 4.79733 4.65792 5.31973 4.99481 5.65224C5.82057 6.46752 6.76212 7.16568 7.73563 7.79374C8.5792 8.33766 9.50238 9.01014 10.5114 9.14781C11.3025 9.25618 11.7493 8.30755 11.1617 7.76592C10.4447 7.10484 9.45014 6.7595 8.63025 6.22776C8.27871 5.99983 7.94356 5.75408 7.61348 5.50193C7.73049 5.56475 7.86981 5.59497 8.02967 5.575C13.1944 4.92922 18.0855 4.1766 23.2535 5.39481C24.523 5.69353 25.7722 6.10271 26.9696 6.62738C26.8754 6.70095 26.7771 6.77106 26.6834 6.84619C23.6089 9.32258 20.9896 14.5082 25.5014 17.1034C28.7035 18.9459 35.5332 17.7592 35.4203 13.1126C35.3482 10.1437 32.798 7.83568 29.9894 6.24394C31.4332 5.36255 32.9772 4.6199 34.4582 3.92762C37.5453 2.48401 40.8549 1.47621 44.1842 0.76802C44.3162 0.739825 44.3116 0.542841 44.1678 0.551786Z" fill="black"/>
</g>
<defs>
<filter id="filter0_d_1_296" x="0.685059" y="0.551514" width="47.5945" height="25.3807" filterUnits="userSpaceOnUse" color-interpolation-filters="sRGB">
<feFlood flood-opacity="0" result="BackgroundImageFix"/>
<feColorMatrix in="SourceAlpha" type="matrix" values="0 0 0 0 0 0 0 0 0 0 0 0 0 0 0 0 0 0 127 0" result="hardAlpha"/>
<feOffset dy="4"/>
<feGaussianBlur stdDeviation="2"/>
<feComposite in2="hardAlpha" operator="out"/>
<feColorMatrix type="matrix" values="0 0 0 0 0 0 0 0 0 0 0 0 0 0 0 0 0 0 0.25 0"/>
<feBlend mode="normal" in2="BackgroundImageFix" result="effect1_dropShadow_1_296"/>
<feBlend mode="normal" in="SourceGraphic" in2="effect1_dropShadow_1_296" result="shape"/>
</filter>
</defs>
</svg>
